<svg xmlns="http://www.w3.org/2000/svg" xmlns:xlink="http://www.w3.org/1999/xlink" style="margin:auto;background:#f1f2f3;display:block;z-index:1;position:relative" width="1988" height="998" preserveAspectRatio="xMidYMid" viewBox="0 0 1988 998">
<g transform="translate(768,361) scale(1,1) translate(-768,-361)"><path id="path0" d="M 711.7712266497239 442.440290503154
c 0 26.92645558749252 -6.588388069280084 7.734194690024448 -14.322582759304531 7.734194690024448
S 683.1260611311149 469.36674609064653 683.1260611311149 442.440290503154
s 6.588388069280084 -7.734194690024448 14.322582759304531 -7.734194690024448
S 711.7712266497239 415.5138349156615 711.7712266497239 442.440290503154
z" fill="none" stroke="none"></path>
<circle cx="0" cy="0" r="6.626109284803196" fill="#1d5167">
  <animateMotion begin="-2.835278072675451s" dur="10s" repeatCount="indefinite">
    <mpath xlink:href="#path0"></mpath>
  </animateMotion>
</circle><path id="path1" d="M 1143.1410261936992 122.92772068624078
c 0 26.26167907045186 -6.425729985323326 7.543248243640427 -13.968978228963753 7.543248243640427
S 1115.2030697357716 149.18939975669264 1115.2030697357716 122.92772068624078
s 6.425729985323326 -7.543248243640427 13.968978228963753 -7.543248243640427
S 1143.1410261936992 96.66604161578891 1143.1410261936992 122.92772068624078
z" fill="none" stroke="none"></path>
<circle cx="0" cy="0" r="4.585955780587958" fill="#7aab92">
  <animateMotion begin="-2.608629263871347s" dur="10s" repeatCount="indefinite">
    <mpath xlink:href="#path1"></mpath>
  </animateMotion>
</circle><path id="path2" d="M 848.8996563625088 613.0276121197855
c 0 21.180871446822596 -5.182553651882125 6.083867330470321 -11.266420982352445 6.083867330470321
S 826.366814397804 634.2084835666082 826.366814397804 613.0276121197855
s 5.182553651882125 -6.083867330470321 11.266420982352445 -6.083867330470321
S 848.8996563625088 591.8467406729629 848.8996563625088 613.0276121197855
z" fill="none" stroke="none"></path>
<circle cx="0" cy="0" r="7.522480910988986" fill="#437f79">
  <animateMotion begin="-9.675683562120872s" dur="10s" repeatCount="indefinite">
    <mpath xlink:href="#path2"></mpath>
  </animateMotion>
</circle><path id="path3" d="M 731.6012800952036 450.26325193379637
c 0 36.681730154116515 -8.975316952602975 10.53624164001219 -19.511558592615167 10.53624164001219
S 692.5781629099732 486.9449820879129 692.5781629099732 450.26325193379637
s 8.975316952602975 -10.53624164001219 19.511558592615167 -10.53624164001219
S 731.6012800952036 413.58152177967986 731.6012800952036 450.26325193379637
z" fill="none" stroke="none"></path>
<circle cx="0" cy="0" r="7.700498552046107" fill="#437f79">
  <animateMotion begin="-0.8675739213604872s" dur="10s" repeatCount="indefinite">
    <mpath xlink:href="#path3"></mpath>
  </animateMotion>
</circle><path id="path4" d="M 1066.419366849379 92.28609045197167
c 0 22.561645042367044 -5.520402510366404 6.480472512169258 -12.000875022535663 6.480472512169258
S 1042.4176168043077 114.84773549433872 1042.4176168043077 92.28609045197167
s 5.520402510366404 -6.480472512169258 12.000875022535663 -6.480472512169258
S 1066.419366849379 69.72444540960463 1066.419366849379 92.28609045197167
z" fill="none" stroke="none"></path>
<circle cx="0" cy="0" r="6.459290568649089" fill="#e8f2d1">
  <animateMotion begin="-4.91829016799858s" dur="10s" repeatCount="indefinite">
    <mpath xlink:href="#path4"></mpath>
  </animateMotion>
</circle><path id="path5" d="M 1309.7948832584198 108.89533328622052
c 0 29.888722642272967 -7.313198093322108 8.585058631291172 -15.89825672461328 8.585058631291172
S 1277.9983698091933 138.7840559284935 1277.9983698091933 108.89533328622052
s 7.313198093322108 -8.585058631291172 15.89825672461328 -8.585058631291172
S 1309.7948832584198 79.00661064394755 1309.7948832584198 108.89533328622052
z" fill="none" stroke="none"></path>
<circle cx="0" cy="0" r="6.808241518335468" fill="#437f79">
  <animateMotion begin="-6.170862174826839s" dur="10s" repeatCount="indefinite">
    <mpath xlink:href="#path5"></mpath>
  </animateMotion>
</circle><path id="path6" d="M 757.9327566055258 349.14461713916893
c 0 25.065696944387486 -6.133096060860767 7.199721462749598 -13.332817523610366 7.199721462749598
S 731.267121558305 374.2103140835564 731.267121558305 349.14461713916893
s 6.133096060860767 -7.199721462749598 13.332817523610366 -7.199721462749598
S 757.9327566055258 324.07892019478146 757.9327566055258 349.14461713916893
z" fill="none" stroke="none"></path>
<circle cx="0" cy="0" r="7.040072928428936" fill="#b0c7a2">
  <animateMotion begin="-4.175177129297138s" dur="10s" repeatCount="indefinite">
    <mpath xlink:href="#path6"></mpath>
  </animateMotion>
</circle><path id="path7" d="M 1104.2374368238482 114.80645927884997
c 0 20.14788845152703 -4.929802493458742 5.787159448842871 -10.716961942301612 5.787159448842871
S 1082.803512939245 134.954347730377 1082.803512939245 114.80645927884997
s 4.929802493458742 -5.787159448842871 10.716961942301612 -5.787159448842871
S 1104.2374368238482 94.65857082732293 1104.2374368238482 114.80645927884997
z" fill="none" stroke="none"></path>
<circle cx="0" cy="0" r="7.39794172866678" fill="#1d5167">
  <animateMotion begin="-2.819584421970893s" dur="10s" repeatCount="indefinite">
    <mpath xlink:href="#path7"></mpath>
  </animateMotion>
</circle><path id="path8" d="M 1096.8464018955067 346.68325699019067
c 0 29.460009455169487 -7.208300185839342 8.461917609463576 -15.670217795302918 8.461917609463576
S 1065.5059663049008 376.14326644536015 1065.5059663049008 346.68325699019067
s 7.208300185839342 -8.461917609463576 15.670217795302918 -8.461917609463576
S 1096.8464018955067 317.2232475350212 1096.8464018955067 346.68325699019067
z" fill="none" stroke="none"></path>
<circle cx="0" cy="0" r="4.403470555841353" fill="#7aab92">
  <animateMotion begin="-4.376839095188876s" dur="10s" repeatCount="indefinite">
    <mpath xlink:href="#path8"></mpath>
  </animateMotion>
</circle><path id="path9" d="M 1176.2988527120792 447.3631672763285
c 0 33.740455224304874 -8.255643299563957 9.691407351662038 -17.947050651225997 9.691407351662038
S 1140.4047514096274 481.1036225006334 1140.4047514096274 447.3631672763285
s 8.255643299563957 -9.691407351662038 17.947050651225997 -9.691407351662038
S 1176.2988527120792 413.62271205202364 1176.2988527120792 447.3631672763285
z" fill="none" stroke="none"></path>
<circle cx="0" cy="0" r="7.942114777615756" fill="#437f79">
  <animateMotion begin="-8.011204692967793s" dur="10s" repeatCount="indefinite">
    <mpath xlink:href="#path9"></mpath>
  </animateMotion>
</circle><path id="path10" d="M 1393.9550695339378 538.2268023063472
c 0 34.271766158022025 -8.385644911005388 9.844017939006326 -18.229662850011714 9.844017939006326
S 1357.4957438339145 572.4985684643692 1357.4957438339145 538.2268023063472
s 8.385644911005388 -9.844017939006326 18.229662850011714 -9.844017939006326
S 1393.9550695339378 503.9550361483251 1393.9550695339378 538.2268023063472
z" fill="none" stroke="none"></path>
<circle cx="0" cy="0" r="7.840684645915495" fill="#e8f2d1">
  <animateMotion begin="-5.454232309890747s" dur="10s" repeatCount="indefinite">
    <mpath xlink:href="#path10"></mpath>
  </animateMotion>
</circle><path id="path11" d="M 631.3343118677407 200.6669388196783
c 0 32.34334613183696 -7.913797457789894 9.29011005914466 -17.203907516934553 9.29011005914466
S 596.9264968338715 233.01028495151527 596.9264968338715 200.6669388196783
s 7.913797457789894 -9.29011005914466 17.203907516934553 -9.29011005914466
S 631.3343118677407 168.32359268784134 631.3343118677407 200.6669388196783
z" fill="none" stroke="none"></path>
<circle cx="0" cy="0" r="4.558173730946534" fill="#e8f2d1">
  <animateMotion begin="-8.395248608226849s" dur="10s" repeatCount="indefinite">
    <mpath xlink:href="#path11"></mpath>
  </animateMotion>
</circle><path id="path12" d="M 618.1860076542066 409.6497425738861
c 0 18.81493476377242 -4.603654250710273 5.4042897725729295 -10.007944023283201 5.4042897725729295
S 598.1701196076401 428.46467733765854 598.1701196076401 409.6497425738861
s 4.603654250710273 -5.4042897725729295 10.007944023283201 -5.4042897725729295
S 618.1860076542066 390.83480781011366 618.1860076542066 409.6497425738861
z" fill="none" stroke="none"></path>
<circle cx="0" cy="0" r="7.301661302887457" fill="#b0c7a2">
  <animateMotion begin="-2.8401228608911766s" dur="10s" repeatCount="indefinite">
    <mpath xlink:href="#path12"></mpath>
  </animateMotion>
</circle><path id="path13" d="M 1438.2605398484166 455.3603916997479
c 0 21.5352368155455 -5.269260071888792 6.185653127869451 -11.454913199758243 6.185653127869451
S 1415.3507134489 476.89562851529337 1415.3507134489 455.3603916997479
s 5.269260071888792 -6.185653127869451 11.454913199758243 -6.185653127869451
S 1438.2605398484166 433.8251548842024 1438.2605398484166 455.3603916997479
z" fill="none" stroke="none"></path>
<circle cx="0" cy="0" r="5.588347798335746" fill="#b0c7a2">
  <animateMotion begin="-2.912637022976754s" dur="10s" repeatCount="indefinite">
    <mpath xlink:href="#path13"></mpath>
  </animateMotion>
</circle><path id="path14" d="M 987.3040613745213 275.45289776337364
c 0 24.49529279359054 -5.993529087793429 7.03588197262707 -13.0294110604205 7.03588197262707
S 961.2452392536802 299.94819055696416 961.2452392536802 275.45289776337364
s 5.993529087793429 -7.03588197262707 13.0294110604205 -7.03588197262707
S 987.3040613745213 250.9576049697831 987.3040613745213 275.45289776337364
z" fill="none" stroke="none"></path>
<circle cx="0" cy="0" r="5.07862933174159" fill="#1d5167">
  <animateMotion begin="-5.745387453119966s" dur="10s" repeatCount="indefinite">
    <mpath xlink:href="#path14"></mpath>
  </animateMotion>
</circle><path id="path15" d="M 1549.9941023033707 34.624054613644546
c 0 35.8988549259995 -8.783762375510515 10.311373223425388 -19.095135598935904 10.311373223425388
S 1511.8038311054988 70.52290953964405 1511.8038311054988 34.624054613644546
s 8.783762375510515 -10.311373223425388 19.095135598935904 -10.311373223425388
S 1549.9941023033707 -1.2748003123549552 1549.9941023033707 34.624054613644546
z" fill="none" stroke="none"></path>
<circle cx="0" cy="0" r="4.913737989945212" fill="#7aab92">
  <animateMotion begin="-8.715449768425888s" dur="10s" repeatCount="indefinite">
    <mpath xlink:href="#path15"></mpath>
  </animateMotion>
</circle><path id="path16" d="M 362.62647572923856 315.73708753460306
c 0 27.781355011414615 -6.79756558789932 7.979750907533986 -14.777316495433306 7.979750907533986
S 333.07184273837197 343.5184425460177 333.07184273837197 315.73708753460306
s 6.79756558789932 -7.979750907533986 14.777316495433306 -7.979750907533986
S 362.62647572923856 287.95573252318843 362.62647572923856 315.73708753460306
z" fill="none" stroke="none"></path>
<circle cx="0" cy="0" r="5.9363875937503545" fill="#437f79">
  <animateMotion begin="-6.593636265297926s" dur="10s" repeatCount="indefinite">
    <mpath xlink:href="#path16"></mpath>
  </animateMotion>
</circle><path id="path17" d="M 1351.7451309293747 57.06135585048785
c 0 30.986904480792116 -7.581902160193815 8.900493840227522 -16.48239600042134 8.900493840227522
S 1318.7803389285318 88.04826033127996 1318.7803389285318 57.06135585048785
s 7.581902160193815 -8.900493840227522 16.48239600042134 -8.900493840227522
S 1351.7451309293747 26.074451369695733 1351.7451309293747 57.06135585048785
z" fill="none" stroke="none"></path>
<circle cx="0" cy="0" r="4.127509194220487" fill="#1d5167">
  <animateMotion begin="-3.799906581242243s" dur="10s" repeatCount="indefinite">
    <mpath xlink:href="#path17"></mpath>
  </animateMotion>
</circle><path id="path18" d="M 520.0183896282988 499.8135959814629
c 0 19.633065670586618 -4.8038352172711924 5.639284820274879 -10.443120037546072 5.639284820274879
S 499.13214955320666 519.4466616520496 499.13214955320666 499.8135959814629
s 4.8038352172711924 -5.639284820274879 10.443120037546072 -5.639284820274879
S 520.0183896282988 480.1805303108763 520.0183896282988 499.8135959814629
z" fill="none" stroke="none"></path>
<circle cx="0" cy="0" r="4.291911883237965" fill="#e8f2d1">
  <animateMotion begin="-9.367026140309678s" dur="10s" repeatCount="indefinite">
    <mpath xlink:href="#path18"></mpath>
  </animateMotion>
</circle><path id="path19" d="M 1039.3610419609524 133.7814316744177
c 0 34.64324419560745 -8.476538473393312 9.950719077461715 -18.42725755085503 9.950719077461715
S 1002.5065268592423 168.42467587002514 1002.5065268592423 133.7814316744177
s 8.476538473393312 -9.950719077461715 18.42725755085503 -9.950719077461715
S 1039.3610419609524 99.13818747881024 1039.3610419609524 133.7814316744177
z" fill="none" stroke="none"></path>
<circle cx="0" cy="0" r="5.335754748083284" fill="#b0c7a2">
  <animateMotion begin="-2.8558597589804413s" dur="10s" repeatCount="indefinite">
    <mpath xlink:href="#path19"></mpath>
  </animateMotion>
</circle><path id="path20" d="M 1307.3522617787632 372.4514004998628
c 0 21.92205089765926 -5.3639060707038615 6.29675930039149 -11.660665371095352 6.29675930039149
S 1284.0309310365726 394.3734513975221 1284.0309310365726 372.4514004998628
s 5.3639060707038615 -6.29675930039149 11.660665371095352 -6.29675930039149
S 1307.3522617787632 350.5293496022035 1307.3522617787632 372.4514004998628
z" fill="none" stroke="none"></path>
<circle cx="0" cy="0" r="6.697406723085859" fill="#437f79">
  <animateMotion begin="-0.07468267086781832s" dur="10s" repeatCount="indefinite">
    <mpath xlink:href="#path20"></mpath>
  </animateMotion>
</circle><path id="path21" d="M 1182.819645288756 426.277438014116
c 0 27.253151474467817 -6.668324296944252 7.828032870325862 -14.496357167270116 7.828032870325862
S 1153.8269309542156 453.5305894885838 1153.8269309542156 426.277438014116
s 6.668324296944252 -7.828032870325862 14.496357167270116 -7.828032870325862
S 1182.819645288756 399.0242865396482 1182.819645288756 426.277438014116
z" fill="none" stroke="none"></path>
<circle cx="0" cy="0" r="4.973972401238015" fill="#1d5167">
  <animateMotion begin="-5.732322665293948s" dur="10s" repeatCount="indefinite">
    <mpath xlink:href="#path21"></mpath>
  </animateMotion>
</circle><path id="path22" d="M 1117.0210795982018 619.4322151970906
c 0 22.41866774804518 -5.485418704308926 6.439404565927871 -11.924823270236796 6.439404565927871
S 1093.171433057728 641.8508829451358 1093.171433057728 619.4322151970906
s 5.485418704308926 -6.439404565927871 11.924823270236796 -6.439404565927871
S 1117.0210795982018 597.0135474490454 1117.0210795982018 619.4322151970906
z" fill="none" stroke="none"></path>
<circle cx="0" cy="0" r="7.803167173423428" fill="#7aab92">
  <animateMotion begin="-4.482172838546599s" dur="10s" repeatCount="indefinite">
    <mpath xlink:href="#path22"></mpath>
  </animateMotion>
</circle><path id="path23" d="M 471.68073857524746 251.6292726419952
c 0 22.988645239666617 -5.624881282046086 6.603121505010624 -12.228002787056711 6.603121505010624
S 447.22473300113404 274.6179178816618 447.22473300113404 251.6292726419952
s 5.624881282046086 -6.603121505010624 12.228002787056711 -6.603121505010624
S 471.68073857524746 228.64062740232856 471.68073857524746 251.6292726419952
z" fill="none" stroke="none"></path>
<circle cx="0" cy="0" r="7.419434729334587" fill="#7aab92">
  <animateMotion begin="-4.6467070400524495s" dur="10s" repeatCount="indefinite">
    <mpath xlink:href="#path23"></mpath>
  </animateMotion>
</circle><path id="path24" d="M 562.0998002580283 263.01475902110013
c 0 27.53549004803537 -6.737407139412909 7.9091301201803725 -14.646537259593282 7.9091301201803725
S 532.8067257388417 290.5502490691355 532.8067257388417 263.01475902110013
s 6.737407139412909 -7.9091301201803725 14.646537259593282 -7.9091301201803725
S 562.0998002580283 235.47926897306476 562.0998002580283 263.01475902110013
z" fill="none" stroke="none"></path>
<circle cx="0" cy="0" r="7.960288868835942" fill="#b0c7a2">
  <animateMotion begin="-2.9196122853291984s" dur="10s" repeatCount="indefinite">
    <mpath xlink:href="#path24"></mpath>
  </animateMotion>
</circle><path id="path25" d="M 411.8320833831523 88.02231328759441
c 0 35.25935006541667 -8.627287781963652 10.127685657087767 -18.75497343905142 10.127685657087767
S 374.32213650504946 123.28166335301108 374.32213650504946 88.02231328759441
s 8.627287781963652 -10.127685657087767 18.75497343905142 -10.127685657087767
S 411.8320833831523 52.762963222177746 411.8320833831523 88.02231328759441
z" fill="none" stroke="none"></path>
<circle cx="0" cy="0" r="7.996647482840918" fill="#b0c7a2">
  <animateMotion begin="-3.6179087757893624s" dur="10s" repeatCount="indefinite">
    <mpath xlink:href="#path25"></mpath>
  </animateMotion>
</circle><path id="path26" d="M 1350.3370039222602 532.4095964384941
c 0 23.289921582442645 -5.698597834001923 6.689658326871824 -12.388256160873748 6.689658326871824
S 1325.560491600513 555.6995180209367 1325.560491600513 532.4095964384941
s 5.698597834001923 -6.689658326871824 12.388256160873748 -6.689658326871824
S 1350.3370039222602 509.11967485605146 1350.3370039222602 532.4095964384941
z" fill="none" stroke="none"></path>
<circle cx="0" cy="0" r="7.4532425486884915" fill="#e8f2d1">
  <animateMotion begin="-5.999171698765164s" dur="10s" repeatCount="indefinite">
    <mpath xlink:href="#path26"></mpath>
  </animateMotion>
</circle><path id="path27" d="M 1314.046933149909 701.6826906773474
c 0 28.56631106216793 -6.989629302445344 8.205217007218447 -15.194846309663792 8.205217007218447
S 1283.6572405305815 730.2490017395154 1283.6572405305815 701.6826906773474
s 6.989629302445344 -8.205217007218447 15.194846309663792 -8.205217007218447
S 1314.046933149909 673.1163796151794 1314.046933149909 701.6826906773474
z" fill="none" stroke="none"></path>
<circle cx="0" cy="0" r="6.4754331088365005" fill="#e8f2d1">
  <animateMotion begin="-7.085151185091938s" dur="10s" repeatCount="indefinite">
    <mpath xlink:href="#path27"></mpath>
  </animateMotion>
</circle><path id="path28" d="M 762.3023152179703 615.9600208247208
c 0 27.796027006344723 -6.801155544105622 7.9839652039500795 -14.785120748055702 7.9839652039500795
S 732.732073721859 643.7560478310655 732.732073721859 615.9600208247208
s 6.801155544105622 -7.9839652039500795 14.785120748055702 -7.9839652039500795
S 762.3023152179703 588.1639938183761 762.3023152179703 615.9600208247208
z" fill="none" stroke="none"></path>
<circle cx="0" cy="0" r="5.764886937933313" fill="#b0c7a2">
  <animateMotion begin="-9.131914743184362s" dur="10s" repeatCount="indefinite">
    <mpath xlink:href="#path28"></mpath>
  </animateMotion>
</circle><path id="path29" d="M 256.15860294090237 144.34504461140637
c 0 34.0605979874161 -8.33397610330394 9.783363251704627 -18.117339355008568 9.783363251704627
S 219.9239242308852 178.40564259882245 219.9239242308852 144.34504461140637
s 8.33397610330394 -9.783363251704627 18.117339355008568 -9.783363251704627
S 256.15860294090237 110.28444662399026 256.15860294090237 144.34504461140637
z" fill="none" stroke="none"></path>
<circle cx="0" cy="0" r="5.400039450028221" fill="#437f79">
  <animateMotion begin="-3.9639311305254643s" dur="10s" repeatCount="indefinite">
    <mpath xlink:href="#path29"></mpath>
  </animateMotion>
</circle></g>
</svg>